<svg t="1677118782353" class="icon" viewBox="0 0 1024 1024" version="1.1" xmlns="http://www.w3.org/2000/svg" p-id="2993" width="200" height="200"><path d="M439.208124 184.208012c-21.254771 0-36.567347 15.312577-36.567347 36.453075s15.42685 36.453074 36.567347 36.453074c21.254771 0 36.567347-15.312577 36.567347-36.453074 0.114273-21.026225-15.312577-36.453074-36.567347-36.453075z m450.121192 110.159135c-15.769669-15.769669-37.367258-24.568687-60.793215-24.568687-4.456645 0-8.456199 0.457092-12.227207 1.14273v-1.14273h-4.113826c-6.285013-34.967526-21.254771-69.135141-43.537998-99.874568-21.369044-29.368151-49.137373-54.736748-80.905257-74.163151l28.682514-40.90972v-3.771008c0-0.914184 0.457092-2.628278 0.79991-4.342372 0.685638-2.742551 1.599821-6.285013 1.599822-10.170294 0-21.140498-15.42685-36.453074-36.567348-36.453074-11.19875 0-22.283227 6.513559-29.596696 17.598036l-33.481978 48.108916c-34.281888-11.19875-71.306327-17.140944-107.188037-17.140944-35.767437 0-72.791876 5.942194-107.188037 17.140944L371.444258 17.598036c-7.542015-10.970204-18.397947-17.598036-29.710969-17.598036-21.254771 0-36.567347 15.312577-36.567348 36.453074 0 7.084924 2.856824 14.626939 7.656289 19.883496l25.825689 36.910166c-32.79634 19.426403-61.136034 45.023546-82.505078 74.391697-22.168954 30.739426-36.567347 64.907042-41.938176 99.874568h-6.285013v1.142729c-3.656735-0.685638-7.656288-1.14273-12.227207-1.142729-23.197411 0-44.795001 8.570472-60.678942 24.34014-15.769669 15.769669-24.568687 37.252985-24.568687 60.56467v268.541457c0 23.197411 8.570472 44.680728 24.454414 60.450396 15.769669 15.769669 37.481531 24.568687 60.793215 24.568687 4.456645 0 8.456199-0.457092 12.227207-1.14273v106.845218c0 33.367704 27.311238 60.678942 60.793215 60.678942H305.165941v66.621136c0 23.197411 8.570472 44.680728 24.454414 60.450396 15.769669 15.769669 37.481531 24.568687 60.793215 24.568687 23.197411 0 44.795001-8.570472 60.678942-24.340141 15.769669-15.769669 24.568687-37.252985 24.568687-60.564669v-66.506863H548.567347v66.39259c0 23.197411 8.570472 44.680728 24.454414 60.450396 15.769669 15.769669 37.481531 24.568687 60.793215 24.568687 23.311684 0 44.795001-8.570472 60.678942-24.682959 15.769669-15.769669 24.568687-37.252985 24.568687-60.56467v-66.506863h36.453074c33.481977 0 60.793215-27.196965 60.793215-60.678942v-104.445486c3.656735 0.685638 7.656288 1.14273 12.227207 1.14273 23.197411 0 44.795001-8.570472 60.678942-24.340141 15.769669-15.769669 24.568687-37.252985 24.568686-60.564669v-268.541457c-0.114273-23.197411-8.684745-44.566455-24.454413-60.450396zM208.033925 623.473273c0 7.770561-4.456645 12.112934-12.227207 12.112934-7.770561 0-12.227207-4.342373-12.227207-12.112934V354.817543c0-7.770561 4.456645-12.112934 12.227207-12.112934 7.770561 0 12.227207 4.342373 12.227207 12.112934v268.65573z m149.811851-453.435108c42.85236-31.196518 97.474835-48.337462 154.268497-48.337462s111.416137 17.255217 154.268497 48.566008c37.024439 27.082692 61.935945 61.935945 71.649146 99.988841H286.19663c9.713202-38.167169 34.853253-73.134695 71.649146-100.217387z m44.909274 770.999666c-0.685638 6.399286-5.02801 9.941748-11.998661 9.941747-7.770561 0-12.227207-4.342373-12.227207-12.112934v-66.506863h24.225868v68.67805z m231.174199 9.941747c-7.770561 0-12.227207-4.342373-12.227207-12.112934v-66.506863h24.225868v68.67805c-0.685638 6.399286-4.913737 9.941748-11.998661 9.941747z m109.473496-151.525946H281.054347V342.818882h462.348398v456.63475z m97.360563-175.980359c0 7.770561-4.456645 12.112934-12.227207 12.112934-7.770561 0-12.227207-4.342373-12.227207-12.112934V354.817543c0-7.770561 4.456645-12.112934 12.227207-12.112934 7.770561 0 12.227207 4.342373 12.227207 12.112934v268.65573zM585.248968 184.208012c-21.254771 0-36.567347 15.312577-36.567348 36.453075s15.42685 36.453074 36.567348 36.453074c21.254771 0 36.68162-15.312577 36.68162-36.567347-0.114273-21.254771-15.312577-36.338801-36.68162-36.338802z" p-id="2994" fill="#536dfe"></path></svg>